<?xml version="1.0" encoding="UTF-8"?>
<svg width="1200px" height="849px" viewBox="0 0 1200 849" version="1.1" xmlns="http://www.w3.org/2000/svg" xmlns:xlink="http://www.w3.org/1999/xlink">
    <title>img_otp</title>
    <defs>
        <path d="M40.1641981,0 L108.525773,0 C111.83017,-2.92408363e-15 114.794546,2.03162268 115.986848,5.11341753 L122.326581,21.5 C127.339763,34.4577898 139.803848,43 153.697599,43 L273.651406,43 C287.565613,43 300.054823,34.4639982 305.108525,21.5 L311.503866,5.09436439 C312.701327,2.02258156 315.66061,-1.03859769e-14 318.957542,0 L377.164198,0 C399.255588,-4.05812251e-15 417.164198,17.90861 417.164198,40 L417.164198,714 C417.164198,736.09139 399.255588,754 377.164198,754 L40.1641981,754 C18.0728081,754 0.164198067,736.09139 0.164198067,714 L0.164198067,40 C0.164198067,17.90861 18.0728081,1.11635499e-14 40.1641981,0 Z" id="path-1"></path>
        <filter x="-11.9%" y="-31.6%" width="123.7%" height="163.2%" filterUnits="objectBoundingBox" id="filter-3">
            <feGaussianBlur stdDeviation="13.23" in="SourceGraphic"></feGaussianBlur>
        </filter>
    </defs>
    <g id="页面-1" stroke="none" stroke-width="1" fill="none" fill-rule="evenodd">
        <g id="绑定otp备份-2" transform="translate(-337.000000, -828.000000)">
            <g id="img_otp" transform="translate(338.000000, 828.929999)">
                <path d="M1090.33768,485.570001 L1151.38139,485.570001 C1159.26175,485.570001 1165.65004,491.958294 1165.65004,499.838653 L1165.65004,571.532534 M1165.65004,579.691275 L1165.65004,588.548273 M1165.65004,595.451239 L1165.65004,629.255991 C1165.65004,631.086268 1164.16631,632.570001 1162.33603,632.570001 L997.614073,632.570001" id="形状备份" stroke="#000000" stroke-width="1.181952" stroke-linecap="round" stroke-linejoin="round"></path>
                <path d="M181.723607,291.070001 L242.767313,291.070001 C250.647673,291.070001 257.035966,297.458294 257.035966,305.338653 L257.035966,377.032534 M257.035966,385.191275 L257.035966,394.048273 M257.035966,400.951239 L257.035966,434.755991 C257.035966,436.586268 255.552233,438.070001 253.721956,438.070001 L89,438.070001" id="形状备份-2" stroke="#000000" stroke-width="1.181952" stroke-linecap="round" stroke-linejoin="round" transform="translate(173.017983, 364.570001) scale(-1, 1) translate(-173.017983, -364.570001) "></path>
                <g id="编组-18" transform="translate(957.755257, 446.316267)">
                    <g id="编组-4备份-2" transform="translate(99.000000, 89.500000) scale(-1, 1) translate(-99.000000, -89.500000) " fill="#F4F4F4">
                        <path d="M4.43232,29.7390751 L178.326723,29.7390751 C188.866304,29.7390751 197.410323,38.2830938 197.410323,48.8226751 L197.410323,174.43947 C197.410323,176.887373 195.425906,178.87179 192.978003,178.87179 L4.43232,178.87179 C1.98441726,178.87179 4.74934255e-14,176.887373 2.84217094e-14,174.43947 L2.84217094e-14,34.1713951 C2.72337494e-14,31.7234924 1.98441726,29.7390751 4.43232,29.7390751 Z" id="矩形"></path>
                        <path d="M117.276709,-2.65447057e-13 L197.410323,-2.65447057e-13 L197.410323,-2.65447057e-13 L197.410323,7.93140297 C197.410323,13.2861902 193.06941,17.627103 187.714623,17.627103 L117.276709,17.627103 C112.409119,17.627103 108.463157,13.6811416 108.463157,8.81355148 C108.463157,3.94596141 112.409119,-2.64552895e-13 117.276709,-2.65447057e-13 Z" id="矩形备份-6"></path>
                    </g>
                    <g id="编组-12" transform="translate(58.794839, 63.805433)" fill="#CFD0D9" fill-rule="nonzero" stroke="#CFD0D9" stroke-linejoin="round" stroke-width="0.6">
                        <path d="M35.9181543,59.0733117 C36.419367,58.905315 36.988412,58.9173013 37.5080092,59.1495131 C38.0352758,59.3851525 38.4095867,59.7992014 38.5909954,60.2759099 C38.7745435,60.7582404 38.761966,61.3059371 38.5093377,61.8038088 C35.5418941,67.7773507 31.4135603,73.0649923 26.2527508,77.5451818 C25.7932908,77.8818852 25.3037159,78.06 24.8162497,78.06 C24.268321,78.06 23.6713307,77.825024 23.2723396,77.4037587 C22.8917027,76.9988984 22.7152021,76.4743067 22.7427943,75.9563979 C22.7699838,75.4460483 22.9952666,74.9416535 23.4231534,74.5637277 C28.1805812,70.4576398 32.0039286,65.5943963 34.7239093,60.0901385 C34.974077,59.5970927 35.4109305,59.2433233 35.9181543,59.0733117 Z M41.4043779,38.58 C41.9759342,38.58 42.4974005,38.8022455 42.8762322,39.1577811 C43.2622154,39.5200285 43.5,40.0196084 43.5,40.5652013 C43.5,44.1184522 43.1127376,47.6313177 42.3390831,51.0599268 C42.2385907,51.5314898 41.975459,51.932764 41.6113725,52.2161227 C41.2508288,52.4967241 40.7907772,52.6616099 40.2928023,52.6616099 C39.5050511,52.5013318 38.9681791,52.1795756 38.6314669,51.7787871 C38.2525897,51.3278098 38.1165217,50.773661 38.2466838,50.2118864 C38.9262721,47.062762 39.3087558,43.8339281 39.3087558,40.5652013 C39.3087558,40.0196083 39.5465404,39.5200285 39.9325236,39.1577811 C40.3113553,38.8022455 40.8328216,38.58 41.4043779,38.58 Z" id="形状"></path>
                        <path d="M40.4356243,28.5 C43.6049343,28.5 46.4849185,29.7721962 48.5955221,31.8318002 C50.713731,33.8988256 52.0567399,36.7588377 52.1399956,39.9304217 C52.0587123,55.0186739 46.6526661,69.2118278 36.7371323,80.2726765 C36.3557227,80.7020523 35.8311129,80.94 35.2591702,80.94 C34.7849692,80.94 34.309187,80.7532735 33.9211377,80.4132385 C33.5157464,80.0314358 33.291312,79.5169926 33.265378,78.9979624 C33.239636,78.4827753 33.4085576,77.9635422 33.7814012,77.5672936 C42.9532572,67.2621082 48.0218437,53.9780627 48.0620698,40.1716159 C48.0620698,38.0718288 47.1981103,36.1664882 45.8103411,34.7848303 C44.4185279,33.3991461 42.499618,32.5398127 40.3951833,32.5398127 C38.3148857,32.5398127 36.4194125,33.3858984 35.0334384,34.7516888 C33.6447662,36.1201381 32.7672033,38.0105738 32.7282968,40.0906792 C32.7282967,52.6471478 27.1061118,64.2659342 17.3258401,72.0546376 C16.8968637,72.3885114 16.3724744,72.5197106 15.8660164,72.4595817 C15.364087,72.3999905 14.8795061,72.1522531 14.5186926,71.7187182 C14.185125,71.2895557 14.0540213,70.7649421 14.1140957,70.2582584 C14.1736386,69.756058 14.4212066,69.2712388 14.8511602,68.9127801 C23.676579,61.8476727 28.7312487,51.3303311 28.7313484,40.0424767 C28.8141548,36.8315602 30.1573731,33.9515226 32.2658148,31.8715829 C34.3840668,29.7819655 37.2745328,28.5 40.4356243,28.5 Z" id="路径"></path>
                        <path d="M54.8469393,26.8240484 L55.0190678,26.8311266 C55.5281364,26.8738591 56.0245141,27.1097465 56.3792359,27.5313795 C59.5360545,31.2674154 61.2986223,35.9781493 61.3396286,40.8545418 C61.299045,55.0849711 57.078198,68.5515549 49.2060827,80.087031 C48.8259202,80.6518702 48.1624296,80.94 47.5428718,80.94 C47.1608521,80.94 46.7331769,80.840605 46.4047383,80.6081549 C45.9530796,80.3020542 45.6665237,79.831785 45.5711807,79.3252468 C45.4757024,78.8179894 45.5722525,78.2757378 45.8816591,77.8278139 C53.3632915,66.9906249 57.3050133,54.2807894 57.3452356,41.0938451 C57.3452356,37.081718 55.9155058,33.1876633 53.334317,30.1195927 C52.9770105,29.6948886 52.8231402,29.1635757 52.8662992,28.6505766 C52.9093164,28.1392627 53.147706,27.6461734 53.5685057,27.298985 C53.9759484,26.942884 54.5034624,26.7878453 55.0190678,26.8311266 Z M66.3070173,54.9277407 C66.7341568,54.6485005 67.2665431,54.5325419 67.8107512,54.6497268 C68.3583146,54.7676342 68.8091736,55.0881797 69.0926718,55.5136513 C69.3756362,55.938322 69.4928693,56.4676476 69.374759,57.0057373 C68.19831,62.6313192 66.4132598,68.1363184 64.0197977,73.3600664 C63.8297181,73.7370988 63.5639295,74.0239489 63.2529986,74.2213745 C62.9293614,74.4268681 62.5563373,74.5357644 62.1710945,74.5357644 C61.92987,74.5357644 61.6404386,74.487847 61.3561528,74.3469902 C60.8550537,74.110633 60.4869422,73.6950297 60.3053671,73.2154183 C60.1246431,72.7380553 60.1278703,72.1977723 60.3625683,71.709721 C62.6164061,66.7663792 64.3066699,61.5439446 65.4341008,56.1995675 C65.5532829,55.6565255 65.8768206,55.2089796 66.3070173,54.9277407 Z M39.9863037,19.86 C41.0089858,19.86 42.031684,19.9408461 43.0150434,20.0626053 C43.5596,20.1329612 44.0224842,20.4238781 44.3323205,20.8330778 C44.6444198,21.2452663 44.8003438,21.7770842 44.7287761,22.3205698 C44.6319786,22.8734746 44.3347548,23.3310381 43.925087,23.6353769 C43.5167424,23.9387328 42.9967576,24.0901036 42.4476004,24.0190986 C41.6536337,23.9011323 40.8199468,23.8622502 39.9863037,23.8622502 C35.2021863,23.8622502 30.8644784,25.797971 27.7216788,28.9181082 C24.5760643,32.0410399 22.6273719,36.3507136 22.6273693,41.0950966 C22.5865606,50.877211 18.0163949,59.8107621 10.0949411,65.6348157 C9.76355878,65.869274 9.33753259,66.0101257 8.91143284,66.0101257 C8.2928146,66.0101257 7.67586739,65.7250109 7.2968075,65.2087334 C6.96342351,64.7605719 6.84553684,64.2297696 6.92268352,63.7288234 C6.99979293,63.2281192 7.2720586,62.7558895 7.72229382,62.4272946 C14.5957354,57.321071 18.5930175,49.56313 18.6329776,41.0538187 C18.6329776,35.2092622 21.0288022,29.912235 24.8947859,26.0755414 C28.7629496,22.2366843 34.1028924,19.86 39.9863037,19.86 Z" id="形状"></path>
                        <path d="M12.7832705,27.5663542 C13.2498069,27.3751505 13.793425,27.3616083 14.3136573,27.5701836 C14.8358698,27.7795529 15.2136393,28.164896 15.4094021,28.6236828 C15.6061001,29.0846611 15.6201264,29.6218292 15.4057021,30.135517 C14.0907227,33.298784 13.4137293,36.6964266 13.3738743,40.2117394 C13.2921234,46.3008279 10.5535814,52.0695152 5.85585619,55.9928738 C5.47567369,56.3188951 5.04830311,56.46 4.57274048,56.46 C4.0010743,56.46 3.43148186,56.223455 3.05491711,55.7620466 C2.69757755,55.3417961 2.54392796,54.8160149 2.58708584,54.3084552 C2.63008005,53.8028203 2.86805757,53.3150119 3.29214607,52.9686899 C7.13204444,49.748571 9.3499736,45.0933009 9.38955302,40.1682262 C9.38955302,36.1793111 10.1629777,32.3100904 11.7092262,28.6412498 C11.9228007,28.1295969 12.3149218,27.7583008 12.7832705,27.5663542 Z M40.350138,9.78 C48.848453,9.78 56.5540611,13.1560239 62.1520772,18.613492 C67.757383,24.0780667 71.2496447,31.6292884 71.3106713,39.9763616 C71.2702473,42.1553219 71.2296014,44.0569459 71.0677014,45.9608711 C71.0201212,46.4738088 70.7814619,46.9281931 70.4237923,47.2536872 C70.0687549,47.5767859 69.5963923,47.7731105 69.0768096,47.7731105 C68.4648474,47.7502563 67.9568086,47.5022497 67.6054779,47.1333357 C67.234418,46.7437051 67.0371222,46.2184616 67.0852697,45.6767492 C67.2057159,43.8274129 67.2860847,41.9780782 67.2860858,40.129561 C67.2661683,32.8485745 64.2381567,26.2511186 59.3634549,21.4736935 C54.4868405,16.694394 47.7621154,13.7362982 40.350138,13.7362982 C32.7786862,13.7362982 25.4858779,16.8992231 20.3812965,22.4099573 C20.0013944,22.8055484 19.4896576,23.0250337 18.9730896,23.0503467 C18.4605891,23.0754604 17.9442696,22.9102265 17.5441226,22.5411329 C17.1382813,22.1667871 16.9141542,21.662218 16.8881988,21.1534683 C16.862414,20.6480637 17.0311414,20.1384597 17.4063273,19.7478595 C23.2643215,13.4087332 31.6443179,9.78 40.350138,9.78 Z M74.7516794,22.8779673 C75.2460903,22.6472317 75.787283,22.6440319 76.2654505,22.8197665 C76.7486664,22.9973564 77.1665989,23.3580524 77.4078206,23.8547255 C79.7625742,29.0272989 80.94,34.4783884 80.94,40.1682262 C80.94,40.7051253 80.7148763,41.1960274 80.3513964,41.5522539 C79.9901398,41.9063015 79.4926111,42.1266324 78.9478257,42.1266324 C78.4030404,42.1266324 77.9055117,41.9063015 77.5442552,41.5522539 C77.1807752,41.1960274 76.9556516,40.7051253 76.9556516,40.1682262 C76.9556516,35.0392512 75.8770775,30.1060186 73.7626284,25.492137 C73.5252021,25.0034913 73.5219877,24.4686083 73.7028185,23.9960155 C73.8840871,23.5222787 74.2513361,23.1114714 74.7516794,22.8779673 Z" id="形状"></path>
                        <path d="M15.047424,8.85943997 L15.2182052,8.86644567 C15.7275218,8.90904712 16.2185797,9.14528724 16.5698353,9.56836708 C16.9217963,9.99229663 17.073639,10.5225943 17.03112,11.0347268 C16.9887119,11.5455229 16.7533509,12.0378774 16.3355096,12.3873381 C8.27204764,19.3303407 3.64750606,29.4076397 3.64750606,40.08 C3.64750601,40.6275668 3.4308568,41.1264744 3.07224154,41.4864282 C2.72058576,41.8393964 2.23203589,42.06 1.67375299,42.06 C1.13319531,42.06 0.639199419,41.8366417 0.280632561,41.4767365 C-0.0775282524,41.1172389 -0.3,40.6220168 -0.3,40.08 C-0.3,28.273061 4.83862783,17.0704611 13.7554644,9.32988604 C14.1783514,8.97616491 14.7073705,8.82371723 15.2182052,8.86644567 Z M39.8512624,-0.3 C52.4985128,-0.3 64.1825898,5.54287443 71.8897074,15.6962454 C72.2217431,16.1247418 72.3510614,16.6613123 72.2819565,17.1728632 C72.2140332,17.6756672 71.9550959,18.1535995 71.5141888,18.4796775 C71.139862,18.7614704 70.7182556,18.8999999 70.2976269,18.8999999 C69.6860325,18.8999999 69.0757218,18.6149108 68.703232,18.1007284 C61.786664,8.93678304 51.2735572,3.70000001 39.8512624,3.70000001 C33.5280329,3.70000001 27.2837791,5.36586698 21.8299656,8.53929819 C21.3295519,8.80271036 20.7939377,8.84844012 20.3107632,8.71465313 C19.8249953,8.58014803 19.3911681,8.26393297 19.1046219,7.78416231 C18.8466261,7.31332841 18.7989858,6.77166147 18.9348744,6.27722691 C19.0697122,5.78661554 19.3849683,5.34340528 19.8551469,5.06030029 C25.9182262,1.55396493 32.8245079,-0.3 39.8512624,-0.3 Z" id="形状"></path>
                    </g>
                </g>
                <g id="编组-17" transform="translate(99.744743, 246.316267)">
                    <g id="编组-4" fill="#F4F4F4">
                        <path d="M4.43232,29.7390751 L178.326723,29.7390751 C188.866304,29.7390751 197.410323,38.2830938 197.410323,48.8226751 L197.410323,174.43947 C197.410323,176.887373 195.425906,178.87179 192.978003,178.87179 L4.43232,178.87179 C1.98441726,178.87179 -2.08301959e-13,176.887373 -2.27373675e-13,174.43947 L-2.27373675e-13,34.1713951 C-2.28561635e-13,31.7234924 1.98441726,29.7390751 4.43232,29.7390751 Z" id="矩形"></path>
                        <path d="M117.276709,-2.91322522e-13 L197.410323,-2.91322522e-13 L197.410323,-2.91322522e-13 L197.410323,7.93140297 C197.410323,13.2861902 193.06941,17.627103 187.714623,17.627103 L117.276709,17.627103 C112.409119,17.627103 108.463157,13.6811416 108.463157,8.81355148 C108.463157,3.94596141 112.409119,-2.9042836e-13 117.276709,-2.91322522e-13 Z" id="矩形备份-6"></path>
                    </g>
                    <path d="M101.806441,107.725433 C99.7786042,119.507299 89.0787271,127.782706 77.1654935,126.783022 C65.2522599,125.783338 56.0811452,115.840482 56.0451516,103.885433 C56.0342258,91.8996221 65.2147127,81.9073558 77.1585505,80.9051037 C89.1023883,79.9028516 99.8197411,88.2254159 101.806441,100.045433 L140.525161,100.045433 L140.525161,107.725433 L132.845161,107.725433 L132.845161,123.085433 L125.165161,123.085433 L125.165161,107.725433 L117.485161,107.725433 L117.485161,123.085433 L109.805161,123.085433 L109.805161,107.725433 L101.806441,107.725433 Z M79.0851614,119.245433 C87.5682551,119.245433 94.4451614,112.368526 94.4451614,103.885433 C94.4451614,95.4023388 87.5682551,88.5254325 79.0851614,88.5254325 C70.6020676,88.5254325 63.7251614,95.4023388 63.7251614,103.885433 C63.7251614,112.368526 70.6020676,119.245433 79.0851614,119.245433 Z" id="形状" fill="#CFD0D9" fill-rule="nonzero"></path>
                </g>
                <g id="编组-5" transform="translate(115.726960, 650.944419)">
                    <circle id="椭圆形备份-6" stroke="#000000" stroke-width="1.71" cx="23.8691272" cy="23.8691272" r="23.0141272"></circle>
                    <circle id="椭圆形备份-11" fill="#FF9881" cx="33.2741272" cy="26.4341272" r="23.8691272"></circle>
                </g>
                <g id="编组-7" transform="translate(992.281133, 646.153179)">
                    <circle id="椭圆形备份-8" stroke="#000000" stroke-width="1.71" cx="23.8691272" cy="23.8691272" r="23.0141272"></circle>
                    <circle id="椭圆形备份-10" fill="#35BCBA" cx="33.2741272" cy="26.4341272" r="23.8691272"></circle>
                </g>
                <g id="编组-6" transform="translate(882.000000, 0.000000)">
                    <circle id="椭圆形备份-9" fill="#FFDE86" cx="33.2741272" cy="26.4341272" r="23.8691272"></circle>
                    <circle id="椭圆形备份-7" stroke="#000000" stroke-width="1.71" cx="23.8691272" cy="23.8691272" r="23.0141272"></circle>
                </g>
                <path d="M808.5,63.0028515 C819.407624,63.0028515 829.282624,67.4240396 836.430718,74.5721336 C843.578812,81.7202277 848,91.5952277 848,102.502851 L848,102.502851 L848,806.502851 C848,817.410475 843.578812,827.285475 836.430718,834.433569 C829.282624,841.581663 819.407624,846.002851 808.5,846.002851 L808.5,846.002851 L435.5,846.002851 C424.592376,846.002851 414.717376,841.581663 407.569282,834.433569 C400.421188,827.285475 396,817.410475 396,806.502851 L396,806.502851 L396,102.502851 C396,91.5952277 400.421188,81.7202277 407.569282,74.5721336 C414.717376,67.4240396 424.592376,63.0028515 435.5,63.0028515 L435.5,63.0028515 Z" id="矩形" stroke="#000000"></path>
                <g id="路径-18" transform="translate(413.335802, 76.502851)">
                    <mask id="mask-2" fill="white">
                        <use xlink:href="#path-1"></use>
                    </mask>
                    <use id="蒙版" fill="#3954FF" xlink:href="#path-1"></use>
                </g>
                <path d="M555,779.502851 L689,779.502851 C693.418278,779.502851 697,783.084573 697,787.502851 C697,791.921129 693.418278,795.502851 689,795.502851 L555,795.502851 C550.581722,795.502851 547,791.921129 547,787.502851 C547,783.084573 550.581722,779.502851 555,779.502851 Z" id="矩形备份-7" fill="#FFFFFF"></path>
                <line x1="5.40505352e-13" y1="846.570001" x2="1115.72817" y2="845.570001" id="路径-16" stroke="#000000" stroke-width="2" stroke-linecap="round" stroke-linejoin="round"></line>
                <line x1="1151.62455" y1="845.570001" x2="1197.88611" y2="845.570001" id="路径-16备份" stroke="#000000" stroke-width="2" stroke-linecap="round" stroke-linejoin="round"></line>
                <line x1="1126.93608" y1="845.570001" x2="1141.41664" y2="845.570001" id="路径-16备份-2" stroke="#000000" stroke-width="2" stroke-linecap="round" stroke-linejoin="round"></line>
                <path d="M874.684232,389.814452 C873.764223,331.524991 955.435628,301.212388 972.97351,331.270319 C990.511393,361.32825 948.178589,384.160718 939.864827,352.389458 C931.551065,320.618199 964.635953,271.383781 1046.50675,293.553363" id="路径-6" stroke="#000000" stroke-width="2" stroke-linejoin="round" stroke-dasharray="8" transform="translate(960.591633, 338.906310) scale(-1, 1) rotate(-15.000000) translate(-960.591633, -338.906310) "></path>
                <path d="M187.161892,575.887149 C186.241883,517.597688 267.913288,487.285085 285.45117,517.343016 C302.989053,547.400947 260.656249,570.233414 252.342487,538.462155 C244.028725,506.690896 277.113613,457.456478 358.984407,479.62606" id="路径-6备份" stroke="#000000" stroke-width="2" stroke-linejoin="round" stroke-dasharray="8" transform="translate(273.069294, 524.979007) rotate(-117.000000) translate(-273.069294, -524.979007) "></path>
                <g id="编组-15" transform="translate(434.500000, 233.820263)">
                    <path d="M17.01,22.68 L317.52,22.68 C326.914364,22.68 334.53,30.2956364 334.53,39.69 L334.53,131.355 C334.53,140.749364 326.914364,148.365 317.52,148.365 L17.01,148.365 C7.61563641,148.365 3.28000136e-13,140.749364 3.12638804e-13,131.355 L3.12638804e-13,39.69 C3.11488326e-13,30.2956364 7.61563641,22.68 17.01,22.68 Z" id="矩形备份-3" fill="#2135B5" opacity="0.573904855" filter="url(#filter-3)"></path>
                    <path d="M42.525,-1.02318154e-12 L343.035,-1.02318154e-12 C352.429364,-1.02135454e-12 360.045,7.61563641 360.045,17.01 L360.045,107.73 C360.045,117.124364 352.429364,124.74 343.035,124.74 L42.525,124.74 C33.1306364,124.74 25.515,117.124364 25.515,107.73 L25.515,17.01 C25.515,7.61563641 33.1306364,-1.02500854e-12 42.525,-1.02318154e-12 Z" id="矩形备份-2" fill="#F4F4F4" opacity="0.160223098"></path>
                    <path d="M27.405,17.01 L327.385,17.01 C336.779364,17.01 344.395,24.6256364 344.395,34.02 L344.395,121 C344.395,130.394364 336.779364,138.01 327.385,138.01 L27.405,138.01 C18.0106364,138.01 10.395,130.394364 10.395,121 L10.395,34.02 C10.395,24.6256364 18.0106364,17.01 27.405,17.01 Z" id="矩形" fill="#F4F4F4"></path>
                    <g id="编组-3" transform="translate(40.162500, 49.612500)">
                        <g id="编组-2" transform="translate(152.523005, 0.983089)">
                            <circle id="椭圆形备份-2" fill="#FCCD7B" cx="27.216" cy="27.216" r="27.216"></circle>
                            <path d="M31.44015,3.5378199 C37.09821,3.5378199 42.3530058,5.26439945 46.7064064,8.2194276 C51.4867091,13.1241167 54.432,19.8261036 54.432,27.216 C54.432,42.2469818 42.2469818,54.432 27.216,54.432 C21.5599452,54.432 16.3068689,52.7066441 11.9543726,49.7535337 C7.17064718,44.8484478 4.22415,38.1452295 4.22415,30.7538199 C4.22415,15.7228382 16.4091682,3.5378199 31.44015,3.5378199 Z" id="形状结合" fill="#FFDE86"></path>
                        </g>
                        <g id="编组-2备份" transform="translate(76.261503, 0.983089)">
                            <circle id="椭圆形备份-2" fill="#FCCD7B" cx="27.216" cy="27.216" r="27.216"></circle>
                            <path d="M31.44015,3.5378199 C37.09821,3.5378199 42.3530058,5.26439945 46.7064064,8.2194276 C51.4867091,13.1241167 54.432,19.8261036 54.432,27.216 C54.432,42.2469818 42.2469818,54.432 27.216,54.432 C21.5599452,54.432 16.3068689,52.7066441 11.9543726,49.7535337 C7.17064718,44.8484478 4.22415,38.1452295 4.22415,30.7538199 C4.22415,15.7228382 16.4091682,3.5378199 31.44015,3.5378199 Z" id="形状结合" fill="#FFDE86"></path>
                        </g>
                        <g id="编组-2备份-2" transform="translate(0.000000, 0.983089)">
                            <circle id="椭圆形备份-2" fill="#FCCD7B" cx="27.216" cy="27.216" r="27.216"></circle>
                            <path d="M31.44015,3.5378199 C37.09821,3.5378199 42.3530058,5.26439945 46.7064064,8.2194276 C51.4867091,13.1241167 54.432,19.8261036 54.432,27.216 C54.432,42.2469818 42.2469818,54.432 27.216,54.432 C21.5599452,54.432 16.3068689,52.7066441 11.9543726,49.7535337 C7.17064718,44.8484478 4.22415,38.1452295 4.22415,30.7538199 C4.22415,15.7228382 16.4091682,3.5378199 31.44015,3.5378199 Z" id="形状结合" fill="#FFDE86"></path>
                        </g>
                        <path d="M251.748008,6.88249457e-13 L272.713683,4.659039 C273.880845,4.91849559 274.711508,5.95365046 274.711508,7.149303 L274.711508,32.6311335 C274.711508,37.749571 272.152812,42.5291948 267.8939,45.3682215 L251.748008,56.133 L235.602116,45.3682215 C231.343956,42.5296963 228.785732,37.7512185 228.784508,32.633685 L228.784508,7.149303 C228.784508,5.95365046 229.61517,4.91849559 230.782332,4.659039 L251.748008,6.88249457e-13 Z M251.748008,15.3089995 C249.438451,15.3089995 247.416882,16.860371 246.819117,19.0912296 C246.221352,21.3220882 247.196431,23.676318 249.196508,24.831198 L249.196508,35.721 L254.299508,35.721 L254.302059,24.831198 C256.302547,23.676081 257.277566,21.3211644 256.67912,19.0899969 C256.080675,16.8588294 254.058039,15.3079462 251.748008,15.3089995 Z" id="形状" fill="#35BCBA" fill-rule="nonzero"></path>
                    </g>
                </g>
                <g id="编组-14" transform="translate(508.000000, 421.121700)">
                    <path d="M18,2.59795681 L304.5,2.59795681 C337.913227,2.59795681 365,29.6847294 365,63.0979568 C365,96.5111842 337.913227,123.597957 304.5,123.597957 L18,123.597957 C8.0588745,123.597957 1.21743675e-15,115.539082 0,105.597957 L0,20.5979568 C-1.21743675e-15,10.6568313 8.0588745,2.59795681 18,2.59795681 Z" id="矩形备份" fill="#F4F4F4"></path>
                    <g id="编组-11" transform="translate(30.870000, 23.597957)" fill="#E8E8ED">
                        <path d="M8.83237219,30.4427163 L183.167628,30.4427163 C188.045612,30.4427163 192,34.397104 192,39.2750884 L192,39.6103441 C192,44.4883285 188.045612,48.4427163 183.167628,48.4427163 L8.83237219,48.4427163 C3.95438773,48.4427163 5.97380806e-16,44.4883285 0,39.6103441 L0,39.2750884 C-5.97380806e-16,34.397104 3.95438773,30.4427163 8.83237219,30.4427163 Z" id="矩形"></path>
                        <path d="M8.83237219,0 L183.167628,0 C188.045612,-8.9607121e-16 192,3.95438773 192,8.83237219 L192,9.16762781 C192,14.0456123 188.045612,18 183.167628,18 L8.83237219,18 C3.95438773,18 5.97380806e-16,14.0456123 0,9.16762781 L0,8.83237219 C-5.97380806e-16,3.95438773 3.95438773,8.9607121e-16 8.83237219,0 Z" id="矩形备份-10"></path>
                        <path d="M8.83237219,60.8854325 L123.167628,60.8854325 C128.045612,60.8854325 132,64.8398202 132,69.7178047 L132,70.0530603 C132,74.9310448 128.045612,78.8854325 123.167628,78.8854325 L8.83237219,78.8854325 C3.95438773,78.8854325 5.97380806e-16,74.9310448 0,70.0530603 L0,69.7178047 C-5.97380806e-16,64.8398202 3.95438773,60.8854325 8.83237219,60.8854325 Z" id="矩形备份-9"></path>
                    </g>
                    <g id="编组-9" transform="translate(249.870000, 0.000000)">
                        <circle id="椭圆形" fill="#35BCBA" cx="62" cy="62" r="62"></circle>
                        <path d="M65.5212898,65.8813619 C63.4934526,77.6632284 52.7935754,85.9386351 40.8803419,84.9389512 C28.9671083,83.9392672 19.7959936,73.9964114 19.76,62.0413619 C19.7490742,50.0555515 28.929561,40.0632852 40.8733989,39.0610331 C52.8172367,38.0587811 63.5345894,46.3813453 65.5212898,58.2013619 L104.24001,58.2013619 L104.24001,65.8813619 L96.5600098,65.8813619 L96.5600098,81.2413619 L88.8800098,81.2413619 L88.8800098,65.8813619 L81.2000098,65.8813619 L81.2000098,81.2413619 L73.5200098,81.2413619 L73.5200098,65.8813619 L65.5212898,65.8813619 Z M42.8000098,77.4013619 C51.2831035,77.4013619 58.1600098,70.5244557 58.1600098,62.0413619 C58.1600098,53.5582682 51.2831035,46.6813619 42.8000098,46.6813619 C34.316916,46.6813619 27.4400098,53.5582682 27.4400098,62.0413619 C27.4400098,70.5244557 34.316916,77.4013619 42.8000098,77.4013619 Z" id="形状" fill="#F4F4F4" fill-rule="nonzero"></path>
                    </g>
                </g>
                <g id="编组-16" transform="translate(485.370000, 605.729695)">
                    <g id="编组-8">
                        <path d="M13.7781,11.413705 L104.4819,11.413705 C112.091335,11.413705 118.26,17.5823705 118.26,25.191805 L118.26,98.675005 C118.26,106.28444 112.091335,112.453105 104.4819,112.453105 L13.7781,112.453105 C6.16866549,112.453105 7.69042248e-15,106.28444 0,98.675005 L0,25.191805 C-9.31886962e-16,17.5823705 6.16866549,11.413705 13.7781,11.413705 Z" id="矩形备份-8" fill="#F4F4F4" opacity="0.160223098"></path>
                        <path d="M28.35,0 L117.45,0 C125.502312,-1.47918565e-15 132.03,6.52768835 132.03,14.58 L132.03,83.43 C132.03,91.4823117 125.502312,98.01 117.45,98.01 L28.35,98.01 C20.2976883,98.01 13.77,91.4823117 13.77,83.43 L13.77,14.58 C13.77,6.52768835 20.2976883,-2.97171186e-16 28.35,0 Z" id="矩形备份-5" fill="#FFDE86"></path>
                    </g>
                    <text id="OTP" font-family="AlibabaPuHuiTi_2_85_Bold, Alibaba PuHuiTi 2.0" font-size="40.5" font-weight="bold" letter-spacing="1.21500002" fill="#FFFFFF">
                        <tspan x="33.615" y="63.655">OTP</tspan>
                    </text>
                </g>
                <g id="编组-13" transform="translate(171.000000, 710.070001)">
                    <path d="M293.052981,3.12638804e-13 C296.055501,0.940987714 297.556762,2.98994153 297.556762,6.14686144 C297.556762,9.30378135 283.807882,52.7150458 256.310122,136.380655 L226.731613,136.380655 L220.662213,128.137839 L189.721367,124.131683 L226.216859,113.798106 L293.052981,3.12638804e-13 Z" id="路径-11" fill="#000000"></path>
                    <path d="M72.216617,1.27897692e-13 L291.165563,1.27897692e-13 C294.429433,1.60074199e-13 297.075323,2.64588968 297.075323,5.90976 C297.075323,6.83534084 296.857918,7.74798157 296.440623,8.57415628 L233.829812,132.533107 C232.824515,134.523427 230.784551,135.77847 228.554753,135.77847 L9.60580693,135.77847 C6.34193661,135.77847 3.69604693,133.132581 3.69604693,129.86871 C3.69604693,128.943129 3.91345201,128.030489 4.33074715,127.204314 L66.9415573,3.24536372 C67.9468545,1.255043 69.986819,1.37801389e-13 72.216617,1.27897692e-13 Z" id="矩形备份" fill="#FFFFFF"></path>
                    <path d="M268.802055,14.9568 L252.253195,42.2912779 L103.617005,42.2912779 L120.165865,14.9568 L268.802055,14.9568 Z" id="矩形备份-2" stroke="#000000" stroke-width="1.6416"></path>
                    <path d="M88.7368274,15.788192 C87.2942951,15.3206994 85.7550093,15.0680779 84.1567205,15.0680779 C75.9592684,15.0680779 69.3139205,21.7134258 69.3139205,29.9108779 C69.3139205,38.10833 75.9592684,44.7536779 84.1567205,44.7536779 C92.3541726,44.7536779 98.9995205,38.10833 98.9995205,29.9108779 C98.9995205,27.4836015 98.4168831,25.1924074 97.3838337,23.1695212 M94.8633943,19.6309744 C94.1508399,18.8890262 93.3619068,18.220984 92.509238,17.6394905" id="形状" stroke="#000000" stroke-width="1.6416" stroke-linecap="round" stroke-linejoin="round"></path>
                    <line x1="9.81981643" y1="96.6456346" x2="230.263416" y2="96.6456346" id="直线备份-2" stroke="#000000" stroke-width="1.6416" stroke-linecap="round" stroke-linejoin="round"></line>
                    <line x1="10.3588849" y1="83.2164346" x2="235.447416" y2="83.2164346" id="直线备份-3" stroke="#000000" stroke-width="1.6416" stroke-linecap="round" stroke-linejoin="round"></line>
                    <line x1="48.0179404" y1="110.074835" x2="224.215416" y2="110.074835" id="直线备份-6" stroke="#000000" stroke-width="1.6416" stroke-linecap="round" stroke-linejoin="round"></line>
                    <line x1="136.847632" y1="69.0804346" x2="240.631416" y2="69.0804346" id="直线备份-5" stroke="#000000" stroke-width="1.6416" stroke-linecap="round" stroke-linejoin="round"></line>
                </g>
            </g>
        </g>
    </g>
</svg>