<?xml version="1.0" encoding="UTF-8"?>
<svg width="1134px" height="764px" viewBox="0 0 1134 764" version="1.1" xmlns="http://www.w3.org/2000/svg" xmlns:xlink="http://www.w3.org/1999/xlink">
    <title>img_error</title>
    <defs>
        <rect id="path-1" x="0.176786727" y="0" width="128.00025" height="118.857375" rx="9.45"></rect>
    </defs>
    <g id="页面-1" stroke="none" stroke-width="1" fill="none" fill-rule="evenodd">
        <g id="绑定otp备份-3" transform="translate(-393.000000, -626.000000)">
            <g id="img_error" transform="translate(394.000000, 626.000000)">
                <g id="编组" transform="translate(654.885000, 89.302500)">
                    <path d="M32.826347,0 L240.496736,0 L240.496736,0 L235.715154,23.1679944 C232.996831,36.3389721 221.398886,45.7876829 207.95032,45.7876829 L23.376347,45.7876829 C12.8583939,45.7876829 4.33190829,37.2611972 4.33190829,26.7432441 C4.33190829,25.4500919 4.46361851,24.160302 4.725,22.8938414 C7.47626998,9.56323009 19.2147826,-1.05230986e-15 32.826347,0 Z" id="矩形备份-6" fill="#3954FF"></path>
                    <g id="编组-6" transform="translate(153.730631, 16.043886)" stroke="#000000" stroke-linecap="round" stroke-linejoin="round" stroke-width="1.9552995">
                        <line x1="32.9325668" y1="0.787402404" x2="63.1307702" y2="0.787402404" id="路径-13"></line>
                        <line x1="4.6419576e-15" y1="11.8110361" x2="63.1307702" y2="11.8110361" id="路径-13备份"></line>
                    </g>
                </g>
                <g id="编组-9" transform="translate(0.000000, 734.737500)" stroke="#000000" stroke-linecap="round" stroke-linejoin="round" stroke-width="1.89">
                    <line x1="9.40513804e-13" y1="1.4175" x2="1054.36312" y2="0.4725" id="路径-16"></line>
                    <line x1="1088.2852" y1="0.4725" x2="1132.00237" y2="0.4725" id="路径-16备份"></line>
                    <line x1="1064.9546" y1="0.4725" x2="1078.63873" y2="0.4725" id="路径-16备份-2"></line>
                </g>
                <g id="编组-3" transform="translate(208.828773, 162.623638)">
                    <path d="M635.386737,121.815877 L630.634678,147.190712 L628.78228,157.082066 L627.977447,161.379681 M624.380392,180.587077 L557.912645,535.508654 C554.145166,555.626079 536.581461,570.205891 516.114299,570.205891 M99.9452177,570.205891 L194.062692,44.3746341 C198.659067,18.6948367 220.997154,0 247.085057,0 L658.199739,0 L642.376051,84.4946406 L639.320501,100.810535" id="形状" stroke="#000000" stroke-width="1.89" fill="#FFFFFF" stroke-linecap="round" stroke-linejoin="round" stroke-dasharray="14.175"></path>
                    <g id="编组-8" transform="translate(380.131227, 286.028862) scale(-1, 1) translate(-380.131227, -286.028862) translate(186.631227, 238.528862)" stroke="#000000" stroke-linecap="round" stroke-linejoin="round" stroke-width="1.551312">
                        <line x1="6.615" y1="63.2646" x2="381.601962" y2="63.2646" id="直线备份-2"></line>
                        <line x1="11.34" y1="94.22028" x2="386.326962" y2="94.22028" id="直线备份-4"></line>
                        <line x1="0.509419675" y1="32.30892" x2="376.876962" y2="32.30892" id="直线备份-3"></line>
                        <line x1="124.766285" y1="1.35324" x2="372.151962" y2="1.35324" id="直线备份-5"></line>
                    </g>
                    <circle id="椭圆形备份" fill="#FFDE86" opacity="0.974063692" cx="291.547285" cy="132.716037" r="56.7"></circle>
                    <circle id="椭圆形" stroke="#000000" stroke-width="1.89" cx="281.152285" cy="123.266037" r="55.755"></circle>
                    <path d="M439.068511,418.1625 C437.111349,426.631605 436.024956,435.278578 435.826269,443.968615 C434.549712,499.801609 469.344501,548.074789 518.9096,566.490282 L521.06507,570.831564 L125.522461,570.831564 C56.7014216,570.831564 0.910946119,515.041089 0.910946119,446.220049 C0.910946119,436.7765 1.98443883,427.363556 4.11075,418.1625 Z" id="形状结合" fill="#3954FF"></path>
                </g>
                <g id="编组-4" transform="translate(123.306273, 0.000000)">
                    <path d="M16.065,0 L152.57025,0 C161.442705,-1.73904887e-14 168.63525,7.19254549 168.63525,16.065 L168.63525,186.602062 C168.63525,195.474517 161.442705,202.667062 152.57025,202.667062 L16.065,202.667062 C7.19254549,202.667063 -2.46615138e-15,195.474517 0,186.602062 L0,16.065 C-1.0865623e-15,7.19254549 7.19254549,-1.92287023e-15 16.065,0 Z" id="矩形备份-3" fill="#F3F3F3"></path>
                    <g id="路径-20-+-路径-20备份-蒙版" transform="translate(17.305713, 15.084562)">
                        <mask id="mask-2" fill="white">
                            <use xlink:href="#path-1"></use>
                        </mask>
                        <use id="蒙版" fill="#FFFFFF" xlink:href="#path-1"></use>
                        <polygon id="路径-20备份" fill="#D8D8D8" mask="url(#mask-2)" points="41.3024638 128.00025 91.8172701 60.8747828 143.840412 128.00025"></polygon>
                        <polygon id="路径-20" fill="#D8D8D8" mask="url(#mask-2)" points="-9.7335 118.857375 40.7813063 51.7319078 92.8044479 118.857375"></polygon>
                    </g>
                    <circle id="椭圆形" fill="#D8D8D8" cx="51.3646357" cy="47.2634039" r="9.9225"></circle>
                </g>
                <g id="编组-2" transform="translate(817.320000, 640.387500) scale(-1, 1) translate(-817.320000, -640.387500) translate(712.320000, 517.387500)" fill="#FFFFFF" stroke="#000000">
                    <path d="M11.6754605,86.1817138 C18.0087912,81.4092068 27.0118514,82.6745044 31.7843584,89.0078351 L128.233402,217.000039 C133.005909,223.33337 131.740612,232.33643 125.407281,237.108937 C119.07395,241.881444 110.07089,240.616147 105.298383,234.282816 L8.84933917,106.290612 C4.07683218,99.957281 5.34212979,90.9542207 11.6754605,86.1817138 Z" id="矩形" stroke-width="1.6065" transform="translate(68.541371, 161.645325) scale(-1, 1) translate(-68.541371, -161.645325) "></path>
                    <path d="M166.671582,13.806291 C152.6391,5.05579682 136.064675,0 118.309406,0 C67.7614296,0 26.7841986,40.977231 26.7841986,91.5252071 C26.7841986,142.073183 67.7614296,183.050414 118.309406,183.050414 C168.857382,183.050414 209.834613,142.073183 209.834613,91.5252071 C209.834613,76.3053653 206.119643,61.9532013 199.547013,49.3260262 M194.746852,41.1661166 C189.643097,33.4350024 183.397891,26.5237801 176.251281,20.6724953" id="形状" stroke-width="1.89" stroke-linecap="round" stroke-linejoin="round" transform="translate(118.309406, 91.525207) scale(-1, 1) translate(-118.309406, -91.525207) "></path>
                </g>
                <path d="M192.787288,365.068889 C191.917879,309.985348 269.097357,281.339938 285.670656,309.744683 C302.243955,338.149428 262.239455,359.72611 254.38295,329.70227 C246.526445,299.67843 277.791664,253.151905 355.159564,274.10216" id="路径-6" stroke="#000000" stroke-width="1.89" stroke-linejoin="round" stroke-dasharray="7.559999799728394" transform="translate(273.969782, 316.960694) scale(1, -1) rotate(-27.000000) translate(-273.969782, -316.960694) "></path>
                <g id="编组-5" transform="translate(450.765000, 11.340000)">
                    <circle id="椭圆形备份-6" stroke="#000000" stroke-width="1.61595" cx="22.5563252" cy="22.5563252" r="21.7483502"></circle>
                    <circle id="椭圆形备份-11" fill="#FFDF8A" cx="31.4440502" cy="24.9802502" r="22.5563252"></circle>
                </g>
                <g id="编组-7" transform="translate(931.255917, 521.184218)">
                    <circle id="椭圆形备份-8" stroke="#000000" stroke-width="1.61595" cx="22.5563252" cy="22.5563252" r="21.7483502"></circle>
                    <circle id="椭圆形备份-10" fill="#35BCBA" cx="31.4440502" cy="24.9802502" r="22.5563252"></circle>
                </g>
                <g id="编组-3" transform="translate(330.823571, 60.952500)" stroke="#000000" stroke-linecap="round" stroke-linejoin="round" stroke-width="1.89">
                    <line x1="84.5879204" y1="62.7857978" x2="75.7276486" y2="8.24513638" id="直线-2"></line>
                    <line x1="0.647441153" y1="84.4323787" x2="61.9599703" y2="69.98944" id="直线-2备份-2" transform="translate(31.303706, 77.210909) scale(1, -1) translate(-31.303706, -77.210909) "></line>
                    <path d="M65.1195449,65.2463657 L30.0312279,26.0788768 M25.1589545,20.6401801 L21.1231441,16.1351889 M16.0207759,10.4396478 L7.26289225,0.663621521" id="形状"></path>
                </g>
            </g>
        </g>
    </g>
</svg>