<svg width="35" height="34" viewBox="0 0 35 34" fill="none" xmlns="http://www.w3.org/2000/svg">
<path d="M6.60516 4.38833C9.62943 1.76777 13.4985 0.32775 17.5002 0.333333C26.7052 0.333333 34.1668 7.795 34.1668 17C34.1668 20.56 33.0502 23.86 31.1502 26.5667L25.8335 17H30.8335C30.8337 14.386 30.0656 11.8297 28.6246 9.64876C27.1836 7.46785 25.1334 5.7586 22.7288 4.73354C20.3242 3.70848 17.6714 3.41284 15.1001 3.88336C12.5288 4.35389 10.1526 5.56983 8.26683 7.38L6.60516 4.38833ZM28.3952 29.6117C25.3709 32.2322 21.5019 33.6722 17.5002 33.6667C8.29516 33.6667 0.833496 26.205 0.833496 17C0.833496 13.44 1.95016 10.14 3.85016 7.43333L9.16683 17H4.16683C4.16662 19.614 4.93475 22.1703 6.37572 24.3512C7.8167 26.5322 9.86694 28.2414 12.2715 29.2665C14.6761 30.2915 17.329 30.5872 19.9002 30.1166C22.4715 29.6461 24.8477 28.4302 26.7335 26.62L28.3952 29.6117Z" fill="white"/>
</svg>
